<svg width="64" height="64" viewBox="0 0 64 64" fill="none" xmlns="http://www.w3.org/2000/svg">
  <rect width="64" height="64" rx="18" fill="#073B3A"/>
  <circle cx="45.5" cy="16.5" r="6.5" fill="#EF5A3C"/>
  <path d="M10 29C17.5 29 23.7 26.3 28.6 20.5C34 26.2 41.7 29 54 29" stroke="#FFD166" stroke-width="4" stroke-linecap="round" stroke-linejoin="round"/>
  <path d="M15 32H49" stroke="#FFD166" stroke-width="3" stroke-linecap="round"/>
  <path d="M10 41.5C16.2 37.2 22.5 37.2 28.7 41.5C34.9 45.8 41.2 45.8 47.4 41.5C49.7 39.9 51.9 39.2 54 39.1" stroke="white" stroke-width="4" stroke-linecap="round"/>
  <path d="M12 50C17.7 46.5 23.4 46.5 29.1 50C34.8 53.5 40.5 53.5 46.2 50C48.7 48.5 51 47.8 53 47.7" stroke="#5CD6CC" stroke-width="3" stroke-linecap="round"/>
</svg>
